<?xml version="1.0" encoding="utf-8"?>
<!--
	Copyright (c) 2018, 2020 ArSysOp and others
	This program and the accompanying materials are made available under the
	terms of the Eclipse Public License 2.0 which is available at
	https://www.eclipse.org/legal/epl-2.0/.
	SPDX-License-Identifier: EPL-2.0
	Contributors:
		Nikifor Fedorov <zelenyhleb@gmail.com>
-->
<svg version="1.1" id="main" xmlns="http://www.w3.org/2000/svg" xmlns:xlink="http://www.w3.org/1999/xlink" x="0px" y="0px"
	 viewBox="0 0 116 302" style="enable-background:new 0 0 116 302;" xml:space="preserve">
<style type="text/css">
	.st0{fill:url(#SVGID_1_);}
	.st1{fill:#F7931E;}
	.st2{fill:#2C2255;}
	.st3{fill:url(#SVGID_2_);}
	.st4{fill:#FFFFFF;}
</style>
<linearGradient id="SVGID_1_" gradientUnits="userSpaceOnUse" x1="0" y1="151" x2="116" y2="151">
	<stop  offset="0" style="stop-color:#2C2255"/>
	<stop  offset="1" style="stop-color:#463787"/>
</linearGradient>
<rect class="st0" width="116" height="302"/>
<path class="st1" d="M27.45,44.57c0-15.71,10.25-29.02,24.43-33.6C33.94,11.68,19.6,26.45,19.6,44.57s14.34,32.9,32.29,33.6
	C37.71,73.59,27.45,60.28,27.45,44.57z"/>
<circle class="st2" cx="62.77" cy="44.57" r="33.63"/>
<linearGradient id="SVGID_2_" gradientUnits="userSpaceOnUse" x1="62.7679" y1="19.5748" x2="62.7679" y2="69.5748">
	<stop  offset="0" style="stop-color:#2C2255"/>
	<stop  offset="1" style="stop-color:#463787"/>
</linearGradient>
<circle class="st3" cx="62.77" cy="44.57" r="25"/>
<g>
	<path class="st4" d="M67.98,60.91c-1.86,0-3.52,0-5.24,0c0-10.87,0-21.68,0-32.5c0.04-0.03,0.09-0.12,0.14-0.12
		c3.77,0.03,7.57-0.21,11.31,0.15c8.92,0.84,10.91,8.3,8.98,14.37c-1.33,4.18-4.87,6.62-9.73,6.77c-1.77,0.05-3.55,0.01-5.45,0.01
		C67.98,53.39,67.98,57.1,67.98,60.91z M68.02,33.42c0,3.66,0,7.34,0,11.02c2.12,0,4.19,0.2,6.22-0.05c2.6-0.32,4.36-2.74,4.39-5.53
		c0.03-2.66-1.63-5.09-4.08-5.38C72.42,33.22,70.24,33.42,68.02,33.42z"/>
	<path class="st4" d="M58.46,60.86c-3.06,0-6.07,0-9.17,0c0-0.64,0-1.26,0-2.01c0.84-0.05,1.71-0.11,2.64-0.16c0-0.76,0-1.45,0-2.25
		c-0.87,0-1.71,0-2.63,0c0-0.79,0-1.48,0-2.31c1.06,0,2.12-0.03,3.17,0.01c0.69,0.03,0.97-0.21,0.95-0.91c-0.03-1-0.05-2,0.01-2.99
		c0.04-0.75-0.21-1.1-0.96-1.36c-4.39-1.54-7.18-5.64-7.08-10.27c0.1-4.45,3.13-8.54,7.49-9.72c1.54-0.42,3.23-0.3,4.85-0.37
		c0.58-0.03,0.86,0.28,0.84,0.94c-0.05,1.39-0.02,2.77-0.02,4.27c-3.22-0.99-5.93-0.45-7.61,2.62c-1.15,2.1-0.86,4.21,0.6,6.11
		c1.55,2.01,3.76,2.53,6.94,1.68C58.46,49.68,58.46,55.21,58.46,60.86z"/>
</g>
</svg>
