<?xml version="1.0" encoding="utf-8"?>
<svg version="1.1" id="menu_item" xmlns="http://www.w3.org/2000/svg" xmlns:xlink="http://www.w3.org/1999/xlink" x="0px" y="0px"
	 viewBox="0 0 502 502" style="enable-background:new 0 0 502 502;" xml:space="preserve">
<style type="text/css">
	.st0{fill:#F7931E;}
	.st1{fill:#FFFFFF;}
</style>
<title>menu_item</title>
<rect x="83.2" y="83.2" transform="matrix(0.7071 -0.7071 0.7071 0.7071 -103.9676 251)" class="st0" width="335.5" height="335.5"/>
<path class="st1" d="M274.7,365.8h-36.9V137.3c0.3-0.2,0.6-0.8,1-0.8c26.5,0.2,53.2-1.4,79.5,1c62.7,5.9,76.7,58.3,63.1,101.1
	c-9.3,29.4-34.3,46.5-68.4,47.6c-12.5,0.4-25,0.1-38.3,0.1L274.7,365.8z M274.9,172.6v77.5c14.9,0,29.5,1.4,43.7-0.3
	c18.3-2.2,30.7-19.3,30.9-38.9c0.2-18.7-11.5-35.8-28.7-37.8C305.9,171.2,290.5,172.6,274.9,172.6L274.9,172.6z"/>
<path class="st1" d="M207.8,365.5h-64.4v-14.2l18.5-1.1v-15.8h-18.5v-16.3c7.5,0,14.9-0.2,22.3,0.1c4.8,0.2,6.8-1.4,6.7-6.4
	c-0.2-7-0.3-14,0-21c0.3-5.3-1.5-7.7-6.8-9.6c-30.8-10.9-50.4-39.7-49.7-72.2c0.7-31.3,22-60,52.6-68.4c10.8-2.9,22.7-2.1,34.1-2.6
	c4.1-0.2,6.1,2,5.9,6.6c-0.4,9.7-0.1,19.5-0.1,30c-22.7-7-41.7-3.1-53.5,18.4c-8.1,14.7-6,29.6,4.2,42.9
	c10.9,14.2,26.4,17.8,48.8,11.8L207.8,365.5z"/>
</svg>
