<?xml version="1.0" encoding="utf-8"?>
<!--
	Copyright (c) 2018, 2020 ArSysOp and others
	This program and the accompanying materials are made available under the
	terms of the Eclipse Public License 2.0 which is available at
	https://www.eclipse.org/legal/epl-2.0/.
	SPDX-License-Identifier: EPL-2.0
	Contributors:
		Nikifor Fedorov <zelenyhleb@gmail.com>
-->
<svg version="1.1" id="main" xmlns="http://www.w3.org/2000/svg" xmlns:xlink="http://www.w3.org/1999/xlink" x="0px" y="0px"
	 viewBox="0 0 500 300" style="enable-background:new 0 0 500 300;" xml:space="preserve">
<style type="text/css">
	.st0{fill:url(#SVGID_1_);}
	.st1{fill:#5E4095;}
	.st2{fill:#F7931E;}
	.st3{opacity:0.5;}
	.st4{fill:#2C2255;}
	.st5{fill:none;}
	.st6{fill:url(#SVGID_2_);}
	.st7{fill:#FFFFFF;}
	.st8{font-family:'JosefinSans-Bold';}
	.st9{font-size:10px;}
	.st10{fill:url(#SVGID_3_);}
</style>
<linearGradient id="SVGID_1_" gradientUnits="userSpaceOnUse" x1="0" y1="150" x2="500" y2="150">
	<stop  offset="0" style="stop-color:#2C2255"/>
	<stop  offset="1" style="stop-color:#463787"/>
</linearGradient>
<rect class="st0" width="500" height="300"/>
<polygon class="st1" points="209.67,129.28 222.12,129.3 222.12,129.3 "/>
<polygon class="st1" points="242.49,129.35 222.12,129.3 222.12,129.3 275.3,129.42 "/>
<path class="st2" d="M220,125.35c0-15.71,10.25-29.02,24.43-33.6c-17.95,0.71-32.29,15.48-32.29,33.6s14.34,32.9,32.29,33.6
	C230.25,154.37,220,141.06,220,125.35z"/>
<ellipse class="st3" cx="261.69" cy="125.47" rx="33.63" ry="34.74"/>
<circle class="st4" cx="255.31" cy="125.35" r="33.63"/>
<line class="st5" x1="252" y1="153.65" x2="252.04" y2="141.72"/>
<line class="st5" x1="252.02" y1="134.6" x2="252.02" y2="131.07"/>
<line class="st5" x1="252" y1="153.65" x2="245.44" y2="153.65"/>
<line class="st5" x1="245.44" y1="152.19" x2="245.44" y2="153.65"/>
<line class="st5" x1="247.54" y1="152.19" x2="245.44" y2="152.19"/>
<line class="st5" x1="247.35" y1="150.65" x2="247.35" y2="152.19"/>
<linearGradient id="SVGID_2_" gradientUnits="userSpaceOnUse" x1="255.3107" y1="100.3545" x2="255.3107" y2="150.3545">
	<stop  offset="0" style="stop-color:#2C2255"/>
	<stop  offset="1" style="stop-color:#463787"/>
</linearGradient>
<circle class="st6" cx="255.31" cy="125.35" r="25"/>
<g>
	<path class="st7" d="M260.53,141.69c-1.86,0-3.52,0-5.24,0c0-10.87,0-21.68,0-32.5c0.04-0.03,0.09-0.12,0.14-0.12
		c3.77,0.03,7.57-0.21,11.31,0.15c8.92,0.84,10.91,8.3,8.98,14.37c-1.33,4.18-4.87,6.62-9.73,6.77c-1.77,0.05-3.55,0.01-5.45,0.01
		C260.53,134.17,260.53,137.88,260.53,141.69z M260.56,114.2c0,3.66,0,7.34,0,11.02c2.12,0,4.19,0.2,6.22-0.05
		c2.6-0.32,4.36-2.74,4.39-5.53c0.03-2.66-1.63-5.09-4.08-5.38C264.96,114,262.78,114.2,260.56,114.2z"/>
	<path class="st7" d="M251.01,141.64c-3.06,0-6.07,0-9.17,0c0-0.64,0-1.26,0-2.01c0.84-0.05,1.71-0.11,2.64-0.16
		c0-0.76,0-1.45,0-2.25c-0.87,0-1.71,0-2.63,0c0-0.79,0-1.48,0-2.31c1.06,0,2.12-0.03,3.17,0.01c0.69,0.03,0.97-0.21,0.95-0.91
		c-0.03-1-0.05-2,0.01-2.99c0.04-0.75-0.21-1.1-0.96-1.36c-4.39-1.54-7.18-5.64-7.08-10.27c0.1-4.45,3.13-8.54,7.49-9.72
		c1.54-0.42,3.23-0.3,4.85-0.37c0.58-0.03,0.86,0.28,0.84,0.94c-0.05,1.39-0.02,2.77-0.02,4.27c-3.22-0.99-5.93-0.45-7.61,2.62
		c-1.15,2.1-0.86,4.21,0.6,6.11c1.55,2.01,3.76,2.53,6.94,1.68C251.01,130.46,251.01,135.99,251.01,141.64z"/>
</g>
<text transform="matrix(1 0 0 1 292.1216 296.3336)" class="st7 st8 st9">Copyright (c) 2018-2020 ArSysOp and others</text>
<g>
	<path class="st7" d="M65.07,200.36c1.42,1.26,2.13,3.02,2.13,5.28c0,1.3-0.26,2.52-0.78,3.65c-0.52,1.13-1.37,2.05-2.53,2.75
		c-1.16,0.7-2.63,1.06-4.4,1.06h-3.42v8.51h-3.1v-23.14h6.21C61.68,198.47,63.65,199.1,65.07,200.36z M62.19,209.38
		c0.69-0.47,1.19-1.04,1.49-1.71c0.3-0.67,0.45-1.33,0.45-1.97c0-1.11-0.36-2.1-1.09-2.96c-0.73-0.86-1.86-1.3-3.39-1.3h-3.58v8.64
		h3.42C60.59,210.09,61.5,209.85,62.19,209.38z"/>
	<path class="st7" d="M84.86,208.36v13.25h-2.98v-2.18c-0.47,0.62-1.15,1.19-2.05,1.71s-1.91,0.78-3.04,0.78
		c-1.26,0-2.4-0.27-3.41-0.82c-1.01-0.54-1.81-1.34-2.4-2.38s-0.88-2.29-0.88-3.74c0-1.45,0.3-2.71,0.91-3.79s1.43-1.91,2.46-2.5
		c1.03-0.59,2.18-0.88,3.44-0.88c1.13,0,2.11,0.25,2.94,0.74c0.83,0.49,1.5,1.13,2.02,1.92l0.22-2.11H84.86z M80.4,218.55
		c0.78-0.61,1.27-1.43,1.49-2.48v-2.62c-0.26-0.94-0.79-1.7-1.6-2.29c-0.81-0.59-1.74-0.88-2.78-0.88c-0.79,0-1.52,0.19-2.19,0.58
		c-0.67,0.38-1.21,0.92-1.6,1.62c-0.4,0.69-0.59,1.48-0.59,2.35c0,0.85,0.2,1.63,0.61,2.34c0.4,0.7,0.95,1.26,1.63,1.68
		c0.68,0.42,1.43,0.62,2.24,0.62C78.68,219.46,79.62,219.16,80.4,218.55z"/>
	<path class="st7" d="M90.99,221.38c-0.89-0.34-1.61-0.84-2.16-1.5l1.28-1.73c0.53,0.51,1.09,0.91,1.68,1.18
		c0.59,0.28,1.17,0.42,1.74,0.42c0.7,0,1.28-0.14,1.73-0.42c0.45-0.28,0.67-0.7,0.67-1.28c0-0.45-0.14-0.81-0.42-1.09
		c-0.28-0.28-0.59-0.48-0.94-0.61s-0.94-0.32-1.78-0.58c-2.26-0.72-3.39-2.02-3.39-3.87c0-1.11,0.41-2.06,1.23-2.85
		c0.82-0.79,1.97-1.18,3.44-1.18c0.94,0,1.77,0.12,2.5,0.35c0.73,0.24,1.4,0.61,2.02,1.12l-1.18,1.82c-0.34-0.36-0.77-0.65-1.3-0.86
		c-0.52-0.21-1.02-0.33-1.49-0.35c-0.6,0-1.11,0.14-1.54,0.43s-0.64,0.68-0.64,1.17c0,0.41,0.14,0.74,0.42,1.01
		c0.28,0.27,0.56,0.46,0.86,0.58c0.3,0.12,0.89,0.31,1.76,0.59c1.09,0.36,1.94,0.83,2.54,1.41c0.61,0.58,0.91,1.35,0.91,2.34
		c0,1.28-0.45,2.34-1.34,3.17s-2.17,1.25-3.81,1.25C92.81,221.9,91.87,221.72,90.99,221.38z"/>
	<path class="st7" d="M104.04,221.38c-0.89-0.34-1.61-0.84-2.16-1.5l1.28-1.73c0.53,0.51,1.09,0.91,1.68,1.18
		c0.59,0.28,1.17,0.42,1.74,0.42c0.7,0,1.28-0.14,1.73-0.42c0.45-0.28,0.67-0.7,0.67-1.28c0-0.45-0.14-0.81-0.42-1.09
		c-0.28-0.28-0.59-0.48-0.94-0.61s-0.94-0.32-1.78-0.58c-2.26-0.72-3.39-2.02-3.39-3.87c0-1.11,0.41-2.06,1.23-2.85
		c0.82-0.79,1.97-1.18,3.44-1.18c0.94,0,1.77,0.12,2.5,0.35c0.73,0.24,1.4,0.61,2.02,1.12l-1.18,1.82c-0.34-0.36-0.77-0.65-1.3-0.86
		c-0.52-0.21-1.02-0.33-1.49-0.35c-0.6,0-1.11,0.14-1.54,0.43s-0.64,0.68-0.64,1.17c0,0.41,0.14,0.74,0.42,1.01
		c0.28,0.27,0.56,0.46,0.86,0.58c0.3,0.12,0.89,0.31,1.76,0.59c1.09,0.36,1.94,0.83,2.54,1.41c0.61,0.58,0.91,1.35,0.91,2.34
		c0,1.28-0.45,2.34-1.34,3.17s-2.17,1.25-3.81,1.25C105.86,221.9,104.93,221.72,104.04,221.38z"/>
	<path class="st7" d="M129.75,208.36v13.25h-2.98v-2.18c-0.47,0.62-1.15,1.19-2.05,1.71s-1.91,0.78-3.04,0.78
		c-1.26,0-2.4-0.27-3.41-0.82c-1.01-0.54-1.81-1.34-2.4-2.38s-0.88-2.29-0.88-3.74c0-1.45,0.3-2.71,0.91-3.79s1.43-1.91,2.46-2.5
		c1.03-0.59,2.18-0.88,3.44-0.88c1.13,0,2.11,0.25,2.94,0.74c0.83,0.49,1.5,1.13,2.02,1.92l0.22-2.11H129.75z M125.29,218.55
		c0.78-0.61,1.27-1.43,1.49-2.48v-2.62c-0.26-0.94-0.79-1.7-1.6-2.29c-0.81-0.59-1.74-0.88-2.78-0.88c-0.79,0-1.52,0.19-2.19,0.58
		c-0.67,0.38-1.21,0.92-1.6,1.62c-0.4,0.69-0.59,1.48-0.59,2.35c0,0.85,0.2,1.63,0.61,2.34c0.4,0.7,0.95,1.26,1.63,1.68
		c0.68,0.42,1.43,0.62,2.24,0.62C123.58,219.46,124.51,219.16,125.29,218.55z"/>
	<path class="st7" d="M148.92,208.36v13.34c0,1.22-0.31,2.31-0.93,3.3c-0.62,0.98-1.5,1.76-2.64,2.34
		c-1.14,0.58-2.48,0.86-4.02,0.86c-1.34,0-2.5-0.22-3.47-0.67c-0.97-0.45-1.95-1.11-2.93-1.98l1.76-2.05
		c0.73,0.68,1.45,1.2,2.18,1.55c0.73,0.35,1.53,0.53,2.4,0.53c1.47,0,2.61-0.35,3.41-1.06c0.8-0.7,1.21-1.65,1.23-2.85l0.03-2.5
		c-0.49,0.83-1.21,1.5-2.16,2s-2.04,0.75-3.28,0.75c-1.22,0-2.34-0.31-3.36-0.93c-1.02-0.62-1.84-1.46-2.45-2.53
		s-0.91-2.25-0.91-3.55c0-1.34,0.31-2.55,0.94-3.63c0.63-1.08,1.48-1.92,2.54-2.54c1.07-0.62,2.21-0.93,3.42-0.93
		c1.13,0,2.18,0.22,3.14,0.67c0.96,0.45,1.67,1.02,2.14,1.73l0.22-1.86H148.92z M144.31,218.54c0.83-0.62,1.38-1.43,1.63-2.43v-2.62
		c-0.3-0.96-0.86-1.73-1.7-2.32c-0.83-0.59-1.79-0.88-2.88-0.88c-1.3,0-2.39,0.43-3.26,1.28c-0.88,0.85-1.31,1.94-1.31,3.26
		c0,0.85,0.2,1.63,0.61,2.34c0.4,0.7,0.96,1.26,1.66,1.68c0.7,0.42,1.47,0.62,2.3,0.62C142.5,219.46,143.48,219.15,144.31,218.54z"
		/>
	<path class="st7" d="M163.55,218.22l1.38,2.21c-0.7,0.47-1.47,0.84-2.29,1.1c-0.82,0.27-1.62,0.4-2.38,0.4
		c-1.47,0-2.76-0.3-3.86-0.91c-1.1-0.61-1.95-1.45-2.54-2.51c-0.6-1.07-0.9-2.27-0.9-3.62c0-1.3,0.33-2.49,0.98-3.57
		c0.65-1.08,1.54-1.93,2.67-2.56c1.13-0.63,2.37-0.94,3.71-0.94c1.73,0,3.17,0.51,4.34,1.52c1.16,1.01,1.96,2.43,2.38,4.24
		l-10.5,3.68c0.38,0.66,0.9,1.18,1.55,1.55c0.65,0.37,1.39,0.56,2.22,0.56C161.42,219.37,162.5,218.98,163.55,218.22z
		 M157.08,211.46c-0.79,0.85-1.18,1.94-1.18,3.26c0,0.32,0.01,0.57,0.03,0.74l7.71-2.85c-0.32-0.72-0.77-1.31-1.36-1.76
		c-0.59-0.45-1.32-0.67-2.19-0.67C158.87,210.18,157.87,210.61,157.08,211.46z"/>
	<path class="st7" d="M184.7,198.47v20.13h11.78v3.01h-14.88v-23.14H184.7z"/>
	<path class="st7" d="M201.08,202.41c0.36-0.32,0.78-0.48,1.25-0.48c0.47,0,0.88,0.16,1.23,0.48c0.35,0.32,0.53,0.71,0.53,1.18
		c0,0.47-0.18,0.86-0.53,1.18c-0.35,0.32-0.76,0.48-1.23,0.48c-0.47,0-0.89-0.16-1.25-0.48c-0.36-0.32-0.54-0.71-0.54-1.18
		C200.54,203.12,200.72,202.73,201.08,202.41z M203.74,208.36v13.25h-2.98v-13.25H203.74z"/>
	<path class="st7" d="M217.55,221.51c-0.82,0.28-1.66,0.42-2.51,0.42c-1.43,0-2.69-0.29-3.79-0.86s-1.95-1.39-2.56-2.45
		c-0.61-1.06-0.91-2.28-0.91-3.66c0-1.37,0.32-2.58,0.96-3.63c0.64-1.06,1.49-1.87,2.56-2.45c1.07-0.58,2.22-0.86,3.46-0.86
		c2.03,0,3.7,0.55,5.02,1.66l-1.5,1.95c-0.43-0.32-0.92-0.59-1.47-0.82c-0.55-0.22-1.15-0.34-1.79-0.34c-0.79,0-1.51,0.2-2.16,0.59
		s-1.16,0.93-1.54,1.62s-0.56,1.44-0.56,2.27s0.2,1.59,0.59,2.27s0.93,1.23,1.62,1.63s1.46,0.61,2.34,0.61
		c1.09,0,2.04-0.32,2.85-0.96l1.54,1.86C219.08,220.85,218.37,221.23,217.55,221.51z"/>
	<path class="st7" d="M232.95,218.22l1.38,2.21c-0.7,0.47-1.47,0.84-2.29,1.1s-1.62,0.4-2.38,0.4c-1.47,0-2.76-0.3-3.86-0.91
		c-1.1-0.61-1.95-1.45-2.54-2.51c-0.6-1.07-0.9-2.27-0.9-3.62c0-1.3,0.32-2.49,0.98-3.57c0.65-1.08,1.54-1.93,2.67-2.56
		s2.37-0.94,3.71-0.94c1.73,0,3.17,0.51,4.34,1.52c1.16,1.01,1.96,2.43,2.38,4.24l-10.5,3.68c0.38,0.66,0.9,1.18,1.55,1.55
		c0.65,0.37,1.39,0.56,2.22,0.56C230.83,219.37,231.91,218.98,232.95,218.22z M226.49,211.46c-0.79,0.85-1.18,1.94-1.18,3.26
		c0,0.32,0.01,0.57,0.03,0.74l7.71-2.85c-0.32-0.72-0.77-1.31-1.36-1.76s-1.32-0.67-2.19-0.67
		C228.28,210.18,227.28,210.61,226.49,211.46z"/>
	<path class="st7" d="M251.45,208.95c0.81,0.74,1.23,1.69,1.25,2.86v9.79h-3.01v-8.77c-0.04-0.75-0.27-1.33-0.67-1.76
		c-0.41-0.43-1.01-0.65-1.82-0.67c-1.17,0-2.14,0.47-2.91,1.41c-0.77,0.94-1.15,2.13-1.15,3.58v6.21h-2.98v-13.25h2.69l0.19,2.56
		c0.47-0.96,1.17-1.71,2.11-2.26c0.94-0.54,2.02-0.82,3.23-0.82C249.61,207.85,250.64,208.22,251.45,208.95z"/>
	<path class="st7" d="M258.79,221.38c-0.89-0.34-1.61-0.84-2.16-1.5l1.28-1.73c0.53,0.51,1.09,0.91,1.68,1.18
		c0.59,0.28,1.17,0.42,1.74,0.42c0.7,0,1.28-0.14,1.73-0.42c0.45-0.28,0.67-0.7,0.67-1.28c0-0.45-0.14-0.81-0.42-1.09
		c-0.28-0.28-0.59-0.48-0.94-0.61c-0.35-0.13-0.94-0.32-1.78-0.58c-2.26-0.72-3.39-2.02-3.39-3.87c0-1.11,0.41-2.06,1.23-2.85
		s1.97-1.18,3.44-1.18c0.94,0,1.77,0.12,2.5,0.35c0.72,0.24,1.4,0.61,2.02,1.12l-1.18,1.82c-0.34-0.36-0.77-0.65-1.3-0.86
		c-0.52-0.21-1.02-0.33-1.49-0.35c-0.6,0-1.11,0.14-1.54,0.43s-0.64,0.68-0.64,1.17c0,0.41,0.14,0.74,0.42,1.01
		c0.28,0.27,0.56,0.46,0.86,0.58c0.3,0.12,0.88,0.31,1.76,0.59c1.09,0.36,1.94,0.83,2.54,1.41c0.61,0.58,0.91,1.35,0.91,2.34
		c0,1.28-0.45,2.34-1.34,3.17c-0.9,0.83-2.17,1.25-3.81,1.25C260.61,221.9,259.68,221.72,258.79,221.38z"/>
	<path class="st7" d="M271.22,202.41c0.36-0.32,0.78-0.48,1.25-0.48c0.47,0,0.88,0.16,1.23,0.48c0.35,0.32,0.53,0.71,0.53,1.18
		c0,0.47-0.18,0.86-0.53,1.18c-0.35,0.32-0.76,0.48-1.23,0.48c-0.47,0-0.89-0.16-1.25-0.48c-0.36-0.32-0.54-0.71-0.54-1.18
		C270.68,203.12,270.86,202.73,271.22,202.41z M273.88,208.36v13.25h-2.98v-13.25H273.88z"/>
	<path class="st7" d="M290.36,208.95c0.81,0.74,1.23,1.69,1.25,2.86v9.79h-3.01v-8.77c-0.04-0.75-0.27-1.33-0.67-1.76
		c-0.41-0.43-1.01-0.65-1.82-0.67c-1.17,0-2.14,0.47-2.91,1.41c-0.77,0.94-1.15,2.13-1.15,3.58v6.21h-2.98v-13.25h2.69l0.19,2.56
		c0.47-0.96,1.17-1.71,2.11-2.26c0.94-0.54,2.02-0.82,3.23-0.82C288.52,207.85,289.55,208.22,290.36,208.95z"/>
	<path class="st7" d="M310.74,208.36v13.34c0,1.22-0.31,2.31-0.93,3.3c-0.62,0.98-1.5,1.76-2.64,2.34
		c-1.14,0.58-2.48,0.86-4.02,0.86c-1.34,0-2.5-0.22-3.47-0.67s-1.95-1.11-2.93-1.98l1.76-2.05c0.73,0.68,1.45,1.2,2.18,1.55
		c0.72,0.35,1.52,0.53,2.4,0.53c1.47,0,2.61-0.35,3.41-1.06s1.21-1.65,1.23-2.85l0.03-2.5c-0.49,0.83-1.21,1.5-2.16,2
		c-0.95,0.5-2.04,0.75-3.28,0.75c-1.22,0-2.34-0.31-3.36-0.93c-1.02-0.62-1.84-1.46-2.45-2.53c-0.61-1.07-0.91-2.25-0.91-3.55
		c0-1.34,0.31-2.55,0.94-3.63c0.63-1.08,1.48-1.92,2.54-2.54c1.07-0.62,2.21-0.93,3.42-0.93c1.13,0,2.18,0.22,3.14,0.67
		s1.67,1.02,2.14,1.73l0.22-1.86H310.74z M306.14,218.54c0.83-0.62,1.38-1.43,1.63-2.43v-2.62c-0.3-0.96-0.86-1.73-1.7-2.32
		c-0.83-0.59-1.79-0.88-2.88-0.88c-1.3,0-2.39,0.43-3.26,1.28s-1.31,1.94-1.31,3.26c0,0.85,0.2,1.63,0.61,2.34s0.96,1.26,1.66,1.68
		s1.47,0.62,2.3,0.62C304.32,219.46,305.3,219.15,306.14,218.54z"/>
	<path class="st7" d="M326.94,204.17c1.07-1.81,2.5-3.26,4.3-4.34c1.8-1.08,3.77-1.62,5.9-1.62c2.11,0,4.07,0.54,5.89,1.62
		c1.81,1.08,3.26,2.52,4.34,4.34c1.08,1.81,1.62,3.78,1.62,5.89c0,2.13-0.53,4.11-1.6,5.92c-1.07,1.81-2.51,3.25-4.34,4.3
		c-1.82,1.06-3.79,1.58-5.9,1.58c-2.13,0-4.11-0.52-5.92-1.57c-1.81-1.05-3.25-2.47-4.3-4.27c-1.06-1.8-1.58-3.79-1.58-5.97
		C325.33,207.94,325.87,205.98,326.94,204.17z M329.69,214.47c0.77,1.34,1.82,2.41,3.15,3.2s2.79,1.18,4.37,1.18
		s3.02-0.39,4.34-1.17c1.31-0.78,2.35-1.84,3.1-3.2c0.76-1.35,1.14-2.83,1.14-4.43c0-1.6-0.38-3.08-1.15-4.45
		c-0.77-1.37-1.81-2.44-3.14-3.23c-1.32-0.79-2.77-1.18-4.35-1.18c-1.58,0-3.03,0.4-4.35,1.2s-2.36,1.88-3.12,3.25
		c-0.76,1.37-1.14,2.85-1.14,4.45C328.54,211.67,328.92,213.13,329.69,214.47z"/>
	<path class="st7" d="M365.21,208.71c1,0.6,1.79,1.44,2.37,2.51s0.86,2.32,0.86,3.73c0,1.39-0.31,2.61-0.93,3.66
		c-0.62,1.06-1.47,1.87-2.56,2.45s-2.3,0.86-3.65,0.86c-0.96,0-1.88-0.21-2.75-0.62s-1.58-0.98-2.11-1.68v8.35h-2.98v-19.84h2.59
		l0.26,2.24c0.68-0.77,1.5-1.39,2.45-1.86c0.95-0.47,1.98-0.7,3.09-0.7C363.08,207.82,364.2,208.11,365.21,208.71z M363.05,218.94
		c0.71-0.39,1.29-0.94,1.71-1.63s0.64-1.47,0.64-2.32c0-0.87-0.2-1.66-0.59-2.37s-0.93-1.26-1.62-1.66
		c-0.68-0.4-1.44-0.61-2.27-0.61c-1.13,0-2.1,0.31-2.9,0.94c-0.8,0.63-1.33,1.48-1.58,2.54v2.21c0.17,1.02,0.66,1.86,1.46,2.51
		c0.8,0.65,1.74,0.98,2.83,0.98C361.56,219.53,362.33,219.33,363.05,218.94z"/>
	<path class="st7" d="M381.88,218.22l1.38,2.21c-0.7,0.47-1.47,0.84-2.29,1.1s-1.62,0.4-2.38,0.4c-1.47,0-2.76-0.3-3.86-0.91
		c-1.1-0.61-1.95-1.45-2.54-2.51c-0.6-1.07-0.9-2.27-0.9-3.62c0-1.3,0.32-2.49,0.98-3.57c0.65-1.08,1.54-1.93,2.67-2.56
		s2.37-0.94,3.71-0.94c1.73,0,3.17,0.51,4.34,1.52c1.16,1.01,1.96,2.43,2.38,4.24l-10.5,3.68c0.38,0.66,0.9,1.18,1.55,1.55
		c0.65,0.37,1.39,0.56,2.22,0.56C379.76,219.37,380.83,218.98,381.88,218.22z M375.42,211.46c-0.79,0.85-1.18,1.94-1.18,3.26
		c0,0.32,0.01,0.57,0.03,0.74l7.71-2.85c-0.32-0.72-0.77-1.31-1.36-1.76s-1.32-0.67-2.19-0.67
		C377.21,210.18,376.2,210.61,375.42,211.46z"/>
	<path class="st7" d="M393.41,209.58c0.63-0.55,1.3-0.98,2-1.28s1.32-0.46,1.86-0.48l-0.13,2.98c-0.96-0.04-1.83,0.15-2.61,0.58
		c-0.78,0.43-1.39,1.02-1.82,1.78c-0.44,0.76-0.66,1.56-0.66,2.42v6.05h-2.98v-13.25h2.66l0.22,3.14
		C392.3,210.77,392.79,210.13,393.41,209.58z"/>
	<path class="st7" d="M414.39,208.36v13.25h-2.98v-2.18c-0.47,0.62-1.15,1.19-2.05,1.71c-0.9,0.52-1.91,0.78-3.04,0.78
		c-1.26,0-2.39-0.27-3.41-0.82s-1.81-1.34-2.4-2.38c-0.59-1.04-0.88-2.29-0.88-3.74c0-1.45,0.3-2.71,0.91-3.79
		c0.61-1.08,1.43-1.91,2.46-2.5c1.03-0.59,2.18-0.88,3.44-0.88c1.13,0,2.11,0.25,2.94,0.74c0.83,0.49,1.5,1.13,2.02,1.92l0.22-2.11
		H414.39z M409.93,218.55c0.78-0.61,1.28-1.43,1.49-2.48v-2.62c-0.26-0.94-0.79-1.7-1.6-2.29c-0.81-0.59-1.74-0.88-2.78-0.88
		c-0.79,0-1.52,0.19-2.19,0.58s-1.21,0.92-1.6,1.62c-0.4,0.69-0.59,1.48-0.59,2.35c0,0.85,0.2,1.63,0.61,2.34s0.95,1.26,1.63,1.68
		c0.68,0.42,1.43,0.62,2.24,0.62C408.21,219.46,409.15,219.16,409.93,218.55z"/>
	<path class="st7" d="M423.86,202.54v5.86h3.62v2.37h-3.62v10.85h-3.01v-10.85h-2.43v-2.37h2.43v-5.86H423.86z"/>
	<path class="st7" d="M430.89,211.29c0.63-1.08,1.5-1.92,2.62-2.54c1.12-0.62,2.38-0.93,3.79-0.93s2.66,0.31,3.76,0.93
		c1.1,0.62,1.95,1.46,2.56,2.53c0.61,1.07,0.91,2.26,0.91,3.58c0,1.32-0.3,2.52-0.91,3.6c-0.61,1.08-1.47,1.93-2.58,2.54
		c-1.11,0.62-2.38,0.93-3.81,0.93c-1.39,0-2.64-0.29-3.74-0.88c-1.11-0.59-1.98-1.41-2.61-2.48c-0.63-1.07-0.94-2.3-0.94-3.71
		C429.94,213.55,430.26,212.37,430.89,211.29z M433.51,217.19c0.37,0.7,0.88,1.26,1.54,1.66c0.65,0.41,1.37,0.61,2.16,0.61
		c1.24,0,2.26-0.44,3.07-1.31c0.81-0.87,1.22-1.96,1.22-3.26c0-1.3-0.41-2.39-1.22-3.28c-0.81-0.88-1.83-1.33-3.07-1.33
		c-0.81,0-1.54,0.21-2.18,0.62c-0.64,0.42-1.15,0.98-1.52,1.68c-0.37,0.7-0.56,1.47-0.56,2.3S433.14,216.49,433.51,217.19z"/>
	<path class="st7" d="M452.87,209.58c0.63-0.55,1.3-0.98,2-1.28s1.32-0.46,1.86-0.48l-0.13,2.98c-0.96-0.04-1.83,0.15-2.61,0.58
		c-0.78,0.43-1.39,1.02-1.82,1.78c-0.44,0.76-0.66,1.56-0.66,2.42v6.05h-2.98v-13.25h2.66l0.22,3.14
		C451.75,210.77,452.24,210.13,452.87,209.58z"/>
</g>
<radialGradient id="SVGID_3_" cx="245.4374" cy="125.3545" r="44.8499" gradientUnits="userSpaceOnUse">
	<stop  offset="0" style="stop-color:#FFFFFF"/>
	<stop  offset="0.1015" style="stop-color:#F7F6FA;stop-opacity:0.8985"/>
	<stop  offset="0.267" style="stop-color:#E0DEEB;stop-opacity:0.733"/>
	<stop  offset="0.4758" style="stop-color:#BCB6D3;stop-opacity:0.5242"/>
	<stop  offset="0.7199" style="stop-color:#897FB2;stop-opacity:0.2801"/>
	<stop  offset="0.9908" style="stop-color:#483988;stop-opacity:9.163260e-03"/>
	<stop  offset="1" style="stop-color:#463787;stop-opacity:0"/>
</radialGradient>
<circle class="st10" cx="245.44" cy="125.35" r="44.85"/>
</svg>
